<svg xmlns="http://www.w3.org/2000/svg" xmlns:xlink="http://www.w3.org/1999/xlink" width="500" zoomAndPan="magnify" viewBox="0 0 375 374.999991" height="500" preserveAspectRatio="xMidYMid meet" version="1.0"><defs><clipPath id="a2a3de5583"><path d="M 187.5 0 C 83.945312 0 0 83.945312 0 187.5 C 0 291.054688 83.945312 375 187.5 375 C 291.054688 375 375 291.054688 375 187.5 C 375 83.945312 291.054688 0 187.5 0 Z M 187.5 0 " clip-rule="nonzero"/></clipPath><clipPath id="85d1fafbd8"><path d="M 91.511719 77 L 264 77 L 264 291 L 91.511719 291 Z M 91.511719 77 " clip-rule="nonzero"/></clipPath><clipPath id="20f7946d4e"><path d="M 193 104 L 301.511719 104 L 301.511719 252 L 193 252 Z M 193 104 " clip-rule="nonzero"/></clipPath><clipPath id="724c10988e"><path d="M 135 291.269531 L 159 291.269531 L 159 315 L 135 315 Z M 135 291.269531 " clip-rule="nonzero"/></clipPath><clipPath id="d99b9677c2"><path d="M 203 293 L 228 293 L 228 316.769531 L 203 316.769531 Z M 203 293 " clip-rule="nonzero"/></clipPath><clipPath id="d7a933b829"><path d="M 37.5 304 L 137 304 L 137 307 L 37.5 307 Z M 37.5 304 " clip-rule="nonzero"/></clipPath><clipPath id="e4e994b3a3"><path d="M 229 304 L 328.5 304 L 328.5 307 L 229 307 Z M 229 304 " clip-rule="nonzero"/></clipPath></defs><g clip-path="url(#a2a3de5583)"><rect x="-37.5" width="450" fill="#ffffff" y="-37.499999" height="449.999989" fill-opacity="1"/></g><g clip-path="url(#85d1fafbd8)"><path fill="#330036" d="M 248.617188 290.320312 L 106.15625 290.320312 C 98.167969 290.320312 91.511719 283.664062 91.511719 275.675781 L 91.511719 92.605469 C 91.511719 84.617188 98.167969 77.960938 106.15625 77.960938 L 120.136719 77.960938 C 122.796875 77.960938 125.128906 80.292969 125.128906 82.953125 C 125.128906 85.617188 122.796875 87.945312 120.136719 87.945312 L 106.15625 87.945312 C 103.492188 87.945312 101.496094 89.945312 101.496094 92.605469 L 101.496094 275.675781 C 101.496094 278.339844 103.492188 280.335938 106.15625 280.335938 L 248.617188 280.335938 C 251.28125 280.335938 253.277344 278.339844 253.277344 275.675781 L 253.277344 212.433594 C 253.277344 209.769531 255.605469 207.441406 258.269531 207.441406 C 260.933594 207.441406 263.261719 209.769531 263.261719 212.433594 L 263.261719 275.675781 C 263.261719 283.996094 256.9375 290.320312 248.617188 290.320312 Z M 248.617188 290.320312 " fill-opacity="1" fill-rule="nonzero"/></g><path fill="#330036" d="M 258.269531 110.914062 C 255.605469 110.914062 253.277344 108.585938 253.277344 105.921875 L 253.277344 92.605469 C 253.277344 89.945312 251.28125 87.945312 248.617188 87.945312 L 234.636719 87.945312 C 231.972656 87.945312 229.644531 85.617188 229.644531 82.953125 C 229.644531 80.292969 231.972656 77.960938 234.636719 77.960938 L 248.617188 77.960938 C 256.605469 77.960938 263.261719 84.617188 263.261719 92.605469 L 263.261719 105.921875 C 263.261719 108.585938 261.265625 110.914062 258.269531 110.914062 Z M 258.269531 110.914062 " fill-opacity="1" fill-rule="nonzero"/><path fill="#330036" d="M 210.003906 108.25 L 144.765625 108.25 C 139.773438 108.25 135.445312 104.257812 135.445312 98.929688 L 135.445312 74.300781 C 135.445312 69.308594 139.441406 64.980469 144.765625 64.980469 L 159.746094 64.980469 C 162.074219 57.324219 169.066406 51.667969 177.386719 51.667969 C 185.707031 51.667969 193.03125 57.324219 195.027344 64.980469 L 209.671875 64.980469 C 214.664062 64.980469 218.992188 68.972656 218.992188 74.300781 L 218.992188 98.929688 C 219.324219 104.257812 215.332031 108.25 210.003906 108.25 Z M 145.765625 98.265625 L 209.339844 98.265625 L 209.339844 74.964844 L 191.03125 74.964844 C 188.371094 74.964844 186.039062 72.636719 186.039062 69.972656 C 186.039062 65.3125 182.378906 61.652344 177.71875 61.652344 C 173.058594 61.652344 169.398438 65.3125 169.398438 69.972656 C 169.398438 72.636719 167.066406 74.964844 164.40625 74.964844 L 145.765625 74.964844 Z M 145.765625 98.265625 " fill-opacity="1" fill-rule="nonzero"/><path fill="#330036" d="M 157.082031 209.769531 L 123.464844 209.769531 L 123.464844 176.152344 L 157.082031 176.152344 Z M 133.449219 199.785156 L 147.097656 199.785156 L 147.097656 186.140625 L 133.449219 186.140625 Z M 133.449219 199.785156 " fill-opacity="1" fill-rule="nonzero"/><path fill="#330036" d="M 198.023438 197.789062 L 176.71875 197.789062 C 174.058594 197.789062 171.726562 195.457031 171.726562 192.796875 C 171.726562 190.132812 174.058594 187.804688 176.71875 187.804688 L 198.023438 187.804688 C 200.6875 187.804688 203.015625 190.132812 203.015625 192.796875 C 203.015625 195.457031 200.6875 197.789062 198.023438 197.789062 Z M 198.023438 197.789062 " fill-opacity="1" fill-rule="nonzero"/><path fill="#330036" d="M 157.082031 259.367188 L 123.464844 259.367188 L 123.464844 225.75 L 157.082031 225.75 Z M 133.449219 249.382812 L 147.097656 249.382812 L 147.097656 235.734375 L 133.449219 235.734375 Z M 133.449219 249.382812 " fill-opacity="1" fill-rule="nonzero"/><path fill="#330036" d="M 157.082031 160.175781 L 123.464844 160.175781 L 123.464844 126.558594 L 157.082031 126.558594 Z M 133.449219 150.191406 L 147.097656 150.191406 L 147.097656 136.542969 L 133.449219 136.542969 Z M 133.449219 150.191406 " fill-opacity="1" fill-rule="nonzero"/><path fill="#330036" d="M 226.316406 138.539062 L 176.386719 138.539062 C 173.726562 138.539062 171.394531 136.210938 171.394531 133.546875 C 171.394531 130.886719 173.726562 128.554688 176.386719 128.554688 L 226.316406 128.554688 C 228.976562 128.554688 231.308594 130.886719 231.308594 133.546875 C 231.308594 136.210938 229.3125 138.539062 226.316406 138.539062 Z M 226.316406 138.539062 " fill-opacity="1" fill-rule="nonzero"/><path fill="#330036" d="M 213.335938 157.847656 L 176.71875 157.847656 C 174.058594 157.847656 171.726562 155.515625 171.726562 152.851562 C 171.726562 150.191406 174.058594 147.859375 176.71875 147.859375 L 213.667969 147.859375 C 216.328125 147.859375 218.660156 150.191406 218.660156 152.851562 C 218.660156 155.515625 216.328125 157.847656 213.335938 157.847656 Z M 213.335938 157.847656 " fill-opacity="1" fill-rule="nonzero"/><g clip-path="url(#20f7946d4e)"><path fill="#330036" d="M 198.6875 251.710938 C 197.691406 251.710938 196.691406 251.378906 196.027344 250.710938 C 194.363281 249.714844 193.363281 247.382812 194.027344 245.386719 L 200.019531 220.089844 C 200.019531 219.425781 200.351562 218.757812 200.6875 218.425781 L 262.261719 128.222656 C 263.929688 125.890625 266.921875 125.226562 269.253906 126.890625 C 271.582031 128.554688 272.25 131.550781 270.585938 133.878906 L 209.007812 223.75 L 206.34375 235.402344 L 216.328125 228.742188 L 282.902344 131.21875 L 271.582031 123.5625 C 270.585938 122.898438 269.585938 121.566406 269.585938 120.234375 C 269.253906 118.902344 269.585938 117.570312 270.253906 116.574219 L 276.578125 106.917969 C 278.242188 104.589844 281.234375 103.925781 283.566406 105.589844 L 298.878906 116.238281 C 301.207031 117.902344 301.875 120.898438 300.207031 123.230469 C 298.542969 125.558594 295.550781 126.226562 293.21875 124.5625 L 281.902344 116.90625 L 281.234375 117.902344 L 292.554688 125.558594 C 293.550781 126.226562 294.550781 127.554688 294.550781 128.886719 C 294.882812 130.21875 294.550781 131.550781 293.882812 132.550781 L 223.984375 234.734375 C 223.652344 235.402344 223.320312 235.734375 222.652344 236.066406 L 201.351562 251.046875 C 200.6875 251.378906 199.6875 251.710938 198.6875 251.710938 Z M 198.6875 251.710938 " fill-opacity="1" fill-rule="nonzero"/></g><g clip-path="url(#724c10988e)"><path fill="#330036" d="M 143.902344 314.195312 L 142.242188 313.585938 C 143.9375 308.96875 144.269531 306.4375 143.390625 304.847656 C 142.507812 303.257812 140.183594 302.203125 135.371094 301.199219 L 135.730469 299.464844 C 144.875 301.371094 147.210938 300.070312 150.433594 291.308594 L 152.09375 291.921875 C 150.398438 296.539062 150.066406 299.070312 150.949219 300.660156 C 151.828125 302.25 154.152344 303.304688 158.964844 304.304688 L 158.605469 306.039062 C 149.464844 304.136719 147.128906 305.433594 143.902344 314.195312 Z M 142.929688 301.925781 C 143.800781 302.496094 144.480469 303.167969 144.9375 303.992188 C 145.394531 304.820312 145.605469 305.75 145.625 306.789062 C 147.144531 304.832031 148.9375 303.839844 151.402344 303.585938 C 150.53125 303.015625 149.851562 302.34375 149.394531 301.519531 C 148.9375 300.695312 148.722656 299.761719 148.703125 298.722656 C 147.183594 300.679688 145.394531 301.675781 142.929688 301.925781 Z M 142.929688 301.925781 " fill-opacity="1" fill-rule="nonzero"/></g><path fill="#330036" d="M 166.679688 314.917969 L 165.019531 314.304688 C 166.714844 309.691406 167.046875 307.160156 166.167969 305.574219 C 165.285156 303.984375 162.964844 302.929688 158.148438 301.925781 L 158.507812 300.191406 C 167.652344 302.097656 169.988281 300.796875 173.210938 292.035156 L 174.871094 292.648438 C 173.175781 297.265625 172.84375 299.796875 173.726562 301.382812 C 174.605469 302.972656 176.929688 304.027344 181.746094 305.03125 L 181.382812 306.765625 C 172.238281 304.859375 169.90625 306.160156 166.679688 314.921875 Z M 165.707031 302.648438 C 166.578125 303.21875 167.257812 303.890625 167.714844 304.714844 C 168.171875 305.539062 168.382812 306.472656 168.40625 307.511719 C 169.921875 305.554688 171.714844 304.558594 174.179688 304.308594 C 173.308594 303.738281 172.628906 303.066406 172.171875 302.242188 C 171.714844 301.417969 171.503906 300.484375 171.480469 299.445312 C 169.960938 301.402344 168.171875 302.398438 165.707031 302.648438 Z M 165.707031 302.648438 " fill-opacity="1" fill-rule="nonzero"/><path fill="#330036" d="M 189.457031 315.640625 L 187.796875 315.027344 C 189.492188 310.414062 189.828125 307.882812 188.945312 306.292969 C 188.0625 304.703125 185.742188 303.648438 180.925781 302.644531 L 181.289062 300.910156 C 190.433594 302.816406 192.765625 301.515625 195.992188 292.753906 L 197.652344 293.367188 C 195.953125 297.984375 195.621094 300.515625 196.503906 302.101562 C 197.386719 303.691406 199.707031 304.746094 204.523438 305.75 L 204.160156 307.484375 C 195.015625 305.578125 192.683594 306.878906 189.457031 315.640625 Z M 188.484375 303.371094 C 189.355469 303.941406 190.035156 304.613281 190.492188 305.4375 C 190.949219 306.261719 191.160156 307.195312 191.183594 308.234375 C 192.703125 306.277344 194.492188 305.28125 196.957031 305.03125 C 196.085938 304.460938 195.40625 303.789062 194.949219 302.964844 C 194.492188 302.140625 194.28125 301.207031 194.257812 300.167969 C 192.742188 302.125 190.949219 303.121094 188.484375 303.371094 Z M 188.484375 303.371094 " fill-opacity="1" fill-rule="nonzero"/><g clip-path="url(#d99b9677c2)"><path fill="#330036" d="M 212.238281 316.367188 L 210.574219 315.753906 C 212.273438 311.136719 212.605469 308.605469 211.722656 307.015625 C 210.839844 305.425781 208.519531 304.371094 203.703125 303.371094 L 204.066406 301.636719 C 213.207031 303.539062 215.542969 302.242188 218.769531 293.480469 L 220.429688 294.089844 C 218.734375 298.707031 218.398438 301.238281 219.28125 302.828125 C 220.164062 304.417969 222.484375 305.472656 227.300781 306.476562 L 226.9375 308.210938 C 217.796875 306.304688 215.460938 307.605469 212.238281 316.367188 Z M 211.261719 304.097656 C 212.132812 304.667969 212.8125 305.339844 213.269531 306.164062 C 213.726562 306.988281 213.9375 307.921875 213.960938 308.960938 C 215.480469 307.003906 217.269531 306.007812 219.734375 305.757812 C 218.863281 305.1875 218.183594 304.515625 217.726562 303.6875 C 217.269531 302.863281 217.058594 301.933594 217.039062 300.890625 C 215.519531 302.851562 213.726562 303.84375 211.261719 304.097656 Z M 211.261719 304.097656 " fill-opacity="1" fill-rule="nonzero"/></g><g clip-path="url(#d7a933b829)"><path fill="#330036" d="M 136.011719 306.039062 L 38.390625 306.039062 C 37.902344 306.039062 37.507812 305.644531 37.507812 305.15625 C 37.507812 304.667969 37.902344 304.269531 38.390625 304.269531 L 136.011719 304.269531 C 136.5 304.269531 136.894531 304.667969 136.894531 305.15625 C 136.894531 305.644531 136.5 306.039062 136.011719 306.039062 Z M 136.011719 306.039062 " fill-opacity="1" fill-rule="nonzero"/></g><g clip-path="url(#e4e994b3a3)"><path fill="#330036" d="M 328 306.402344 L 230.375 306.402344 C 229.886719 306.402344 229.492188 306.003906 229.492188 305.515625 C 229.492188 305.027344 229.886719 304.632812 230.375 304.632812 L 328 304.632812 C 328.488281 304.632812 328.882812 305.027344 328.882812 305.515625 C 328.882812 306.003906 328.488281 306.402344 328 306.402344 Z M 328 306.402344 " fill-opacity="1" fill-rule="nonzero"/></g></svg>